<?xml version="1.0" encoding="UTF-8"?>
<svg version="1.1" xmlns="http://www.w3.org/2000/svg" width="512" height="512">
<path d="M0 0 C6.89257209 1.85206099 13.15033203 4.25194243 19.5 7.5 C20.35730713 7.9343335 21.21461426 8.36866699 22.09790039 8.81616211 C40.84479979 18.46791167 60.41033262 29.79641847 74.2265625 45.95703125 C85.79118065 59.27926758 98.64533815 65.70859861 116 69 C115.9175 67.741875 115.835 66.48375 115.75 65.1875 C115.80430623 53.60217048 122.65834645 41.2469525 130.5 33 C133.14336154 30.5676385 135.89110348 28.67152533 139.09765625 27.015625 C141.05327253 26.01090192 141.05327253 26.01090192 142.99609375 24.671875 C148.57980461 20.99456109 154.38793181 18.51407316 160.625 16.1875 C161.42454102 15.88545654 162.22408203 15.58341309 163.04785156 15.2722168 C168.06276584 13.46173546 172.68732424 12.46805038 178 12 C176.49356643 15.49907057 174.43581135 17.82179434 171.8125 20.5625 C162.58034834 30.67037023 154.90099163 42.90272725 154.8125 56.9375 C154.79832031 57.95714844 154.78414063 58.97679687 154.76953125 60.02734375 C155.00555086 63.07159667 155.71747005 65.24737643 157 68 C158.94330045 66.13443157 160.79735658 64.24674199 162.5078125 62.1640625 C173.19726995 49.18755834 189.61266294 43.10417469 206 41 C223.23306363 39.53482907 239.31910603 41.72401409 256 46 C256 46.66 256 47.32 256 48 C255.37246826 48.06469482 254.74493652 48.12938965 254.09838867 48.19604492 C230.92369825 50.65514997 210.47991634 54.60569305 191 68 C191.58789307 68.06993164 192.17578613 68.13986328 192.78149414 68.21191406 C203.91397489 69.56235834 214.73275354 71.08191082 225.50878906 74.27685547 C228.78617448 75.22820941 232.07626638 76.13204794 235.3671875 77.03515625 C236.02595383 77.21596237 236.68472015 77.39676849 237.3634491 77.58305359 C238.71158851 77.95295514 240.05974844 78.3227819 241.40792847 78.6925354 C246.60740078 80.12068006 251.80331885 81.56174038 257 83 C257 83.66 257 84.32 257 85 C257.81791016 85.15456665 257.81791016 85.15456665 258.65234375 85.31225586 C264.40796041 86.48367143 269.61466354 88.23780044 275 90.5625 C275.81815186 90.91256104 276.63630371 91.26262207 277.47924805 91.62329102 C294.98537894 99.24984124 311.34721457 108.71232093 326 121 C326.56074219 121.43828125 327.12148438 121.8765625 327.69921875 122.328125 C331.30977597 125.17108344 334.18424029 128.41453761 337.1484375 131.89453125 C339.02093689 134.02380798 340.97783592 136.01297004 343 138 C377.98815785 172.65173325 391.90740066 224.10039884 392.19042969 272.19995117 C392.18070244 285.23202488 392.0701804 298.10337412 390 311 C389.87641113 311.77746582 389.75282227 312.55493164 389.62548828 313.35595703 C386.231142 333.82489372 380.02284019 353.33763495 371 372 C370.35542438 373.36846868 369.71089264 374.73695804 369.06640625 376.10546875 C362.92242403 388.95042552 356.0058491 401.35727219 346.140625 411.72265625 C343.99936202 414.00067872 342.0583296 416.35654269 340.125 418.8125 C328.69754935 433.22102473 317.1955658 445.42828599 302 456 C300.26565869 457.23234868 298.53516765 458.4699534 296.80541992 459.70874023 C295.5990969 460.57151812 294.39091252 461.43169923 293.1809082 462.28930664 C290.52714533 464.1724708 287.90709841 466.07181851 285.33203125 468.0625 C246.63826811 497.8177039 191.78289911 509.39921534 144 511 C142.74316406 511.04253906 141.48632812 511.08507812 140.19140625 511.12890625 C111.19650171 511.58914283 82.71564354 507.32922077 55 499 C54.24090332 498.78150391 53.48180664 498.56300781 52.69970703 498.33789062 C32.6880941 492.55290134 5.53296017 482.61554969 -9.37109375 467.61328125 C-11.99600049 465.00397574 -14.68832112 462.91229185 -17.6875 460.75 C-22.61338611 457.11149271 -27.1945576 453.26955314 -31.6953125 449.12109375 C-33.80356577 447.18078608 -35.95069632 445.3030018 -38.125 443.4375 C-45.24284245 437.20248334 -51.34901315 430.62124559 -56.875 422.9375 C-57.47723389 422.10822998 -58.07946777 421.27895996 -58.69995117 420.42456055 C-99.17156591 364.37161641 -114.07728778 298.772656 -103.1171875 230.34765625 C-102.19382201 224.87361764 -101.12127468 219.43645052 -100 214 C-99.86400391 213.30277832 -99.72800781 212.60555664 -99.58789062 211.88720703 C-96.02589373 193.87380902 -88.39448338 168.14365035 -75 155 C-73.46712281 152.87007825 -71.97491422 150.73128003 -70.5 148.5625 C-60.49521898 134.18881898 -47.27063436 119.3662842 -31.96484375 110.6875 C-29.69317413 109.39453389 -27.47300971 108.06575609 -25.25390625 106.6875 C-9.93785123 97.26027318 11.56433585 85 30 85 C30 84.34 30 83.68 30 83 C35.61 81.68 41.22 80.36 47 79 C39.82286267 48.96235119 29.5608386 27.93805496 5.60546875 8.0078125 C4.86941406 7.38648438 4.13335937 6.76515625 3.375 6.125 C2.39660156 5.32449219 2.39660156 5.32449219 1.3984375 4.5078125 C0 3 0 3 0 0 Z " fill="#DC2E44" transform="translate(120,1)"/>
<path d="M0 0 C6.89257209 1.85206099 13.15033203 4.25194243 19.5 7.5 C20.35730713 7.9343335 21.21461426 8.36866699 22.09790039 8.81616211 C40.84479979 18.46791167 60.41033262 29.79641847 74.2265625 45.95703125 C85.79118065 59.27926758 98.64533815 65.70859861 116 69 C115.9175 67.741875 115.835 66.48375 115.75 65.1875 C115.80430623 53.60217048 122.65834645 41.2469525 130.5 33 C133.14336154 30.5676385 135.89110348 28.67152533 139.09765625 27.015625 C141.05327253 26.01090192 141.05327253 26.01090192 142.99609375 24.671875 C148.57980461 20.99456109 154.38793181 18.51407316 160.625 16.1875 C161.42454102 15.88545654 162.22408203 15.58341309 163.04785156 15.2722168 C168.06276584 13.46173546 172.68732424 12.46805038 178 12 C176.49356643 15.49907057 174.43581135 17.82179434 171.8125 20.5625 C162.58034834 30.67037023 154.90099163 42.90272725 154.8125 56.9375 C154.79832031 57.95714844 154.78414062 58.97679687 154.76953125 60.02734375 C155.00555086 63.07159667 155.71747005 65.24737643 157 68 C158.94330045 66.13443157 160.79735658 64.24674199 162.5078125 62.1640625 C173.19726995 49.18755834 189.61266294 43.10417469 206 41 C223.23306363 39.53482907 239.31910603 41.72401409 256 46 C256 46.66 256 47.32 256 48 C255.37246826 48.06469482 254.74493652 48.12938965 254.09838867 48.19604492 C230.92369825 50.65514997 210.47991634 54.60569305 191 68 C191.58789307 68.06993164 192.17578613 68.13986328 192.78149414 68.21191406 C223.63736737 71.95493759 223.63736737 71.95493759 232 77 C232.33 77.66 232.66 78.32 233 79 C234.94677744 79.72591701 236.89522785 80.44798546 238.85546875 81.13671875 C241.91060127 82.36656263 244.33948226 84.07112464 247 86 C243.57024812 87.14325063 241.82360976 86.56926001 238.42578125 85.5703125 C214.43473028 79.92990438 189.08654304 86.42693524 166 93 C166.51949219 93.31710938 167.03898438 93.63421875 167.57421875 93.9609375 C178.08766248 100.99581112 180.40811009 112.16330461 183 124 C184.64808115 132.70596539 185.2918523 141.14714697 185 150 C184.34 150 183.68 150 183 150 C182.38125 148.4221875 182.38125 148.4221875 181.75 146.8125 C180.30779171 143.40364404 178.36434574 140.85352072 176 138 C176 137.34 176 136.68 176 136 C175.43796875 135.73703125 174.8759375 135.4740625 174.296875 135.203125 C171.79560974 133.89293844 169.57447395 132.35258763 167.25 130.75 C154.5264168 122.65010618 138.18787183 117.46916176 123 118 C124.546875 118.86625 124.546875 118.86625 126.125 119.75 C134.31642332 125.6697128 136.65536393 136.27740428 138.5546875 145.67578125 C139.02091861 149.15615561 139.08001371 152.49273227 139 156 C138.56945312 155.42378906 138.13890625 154.84757813 137.6953125 154.25390625 C136.61516918 152.81786317 135.5274005 151.38750164 134.4296875 149.96484375 C133.91664063 149.29582031 133.40359375 148.62679687 132.875 147.9375 C132.35679687 147.26589844 131.83859375 146.59429687 131.3046875 145.90234375 C130 144 130 144 129 141 C127.6877374 140.29275952 126.35104662 139.62999624 125 139 C123.86623259 138.03368976 122.76412172 137.02959686 121.6875 136 C117.85014984 132.56582359 113.77237618 129.66886145 109.5 126.8125 C108.88342529 126.39677734 108.26685059 125.98105469 107.6315918 125.55273438 C105.77608187 124.32862175 103.90017506 123.15346869 102 122 C101.36191406 121.60731934 100.72382813 121.21463867 100.06640625 120.81005859 C91.48944271 115.98020908 83.10700218 118.07588936 73.875 120 C72.80096924 120.22075195 71.72693848 120.44150391 70.62036133 120.66894531 C46.95220429 125.66167151 23.91168514 132.29189871 1 140 C1.33 139.01 1.66 138.02 2 137 C2.66 137 3.32 137 4 137 C4 136.34 4 135.68 4 135 C9.80053326 130.07979716 16.435069 125.9867891 22.75 121.75 C23.36302979 121.33814453 23.97605957 120.92628906 24.60766602 120.50195312 C28.64784711 117.81828553 32.76689003 115.36810234 37 113 C41.52192581 110.45234647 41.52192581 110.45234647 45.9609375 107.765625 C51.94195186 104.03011428 58.14747834 100.80164289 64.4375 97.625 C65.32655029 97.1717334 66.21560059 96.7184668 67.1315918 96.25146484 C67.97375244 95.83074707 68.81591309 95.4100293 69.68359375 94.9765625 C70.44212646 94.59580566 71.20065918 94.21504883 71.98217773 93.82275391 C74 93 74 93 77 93 C77 92.34 77 91.68 77 91 C75.80375 91.144375 74.6075 91.28875 73.375 91.4375 C65.08332096 91.46378107 57.37236725 86.33096071 50.76171875 81.76171875 C47.36388495 78.36388495 46.27219194 75.54995706 45 71 C44.7829541 70.22398438 44.5659082 69.44796875 44.34228516 68.6484375 C43.89097173 66.98204945 43.44759408 65.31349532 43.01147461 63.64306641 C36.66134823 39.63102721 24.62341048 23.83024363 5.60546875 8.0078125 C4.86941406 7.38648438 4.13335937 6.76515625 3.375 6.125 C2.72273438 5.59132813 2.07046875 5.05765625 1.3984375 4.5078125 C0 3 0 3 0 0 Z " fill="#77B154" transform="translate(120,1)"/>
<path d="M0 0 C0.66 0.33 1.32 0.66 2 1 C2 6.28 2 11.56 2 17 C1.34 17.33 0.68 17.66 0 18 C-1.33257403 5.33029613 -1.33257403 5.33029613 0 0 Z " fill="#BD5749" transform="translate(305,145)"/>
<path d="M0 0 C3.63 0.66 7.26 1.32 11 2 C10.01 2.33 9.02 2.66 8 3 C7.67 3.66 7.34 4.32 7 5 C4.69 4.01 2.38 3.02 0 2 C0 1.34 0 0.68 0 0 Z " fill="#C44C48" transform="translate(352,78)"/>
</svg>
